<svg width="1200" height="280" viewBox="0 0 1200 280" xmlns="http://www.w3.org/2000/svg" role="img">
<title>Jai Surya Kode — AI Engineer, GenAI and RAG Systems</title>
<defs>
<linearGradient id="bg" x1="0%" y1="0%" x2="100%" y2="100%">
<stop offset="0%" stop-color="#0b1120"/>
<stop offset="100%" stop-color="#141e33"/>
</linearGradient>
<linearGradient id="accent" x1="0%" y1="0%" x2="100%" y2="0%">
<stop offset="0%" stop-color="#38bdf8"/>
<stop offset="100%" stop-color="#a78bfa"/>
</linearGradient>
<pattern id="grid" width="40" height="40" patternUnits="userSpaceOnUse">
<path d="M40 0H0V40" fill="none" stroke="#ffffff" stroke-opacity="0.04" stroke-width="1"/>
</pattern>
</defs>

<rect width="1200" height="280" fill="url(#bg)"/>
<rect width="1200" height="280" fill="url(#grid)"/>

<circle cx="1060" cy="60" r="140" fill="#38bdf8" opacity="0.07"/>
<circle cx="1150" cy="220" r="90" fill="#a78bfa" opacity="0.08"/>

<rect x="70" y="88" width="6" height="104" fill="url(#accent)"/>

<text x="96" y="140" font-family="Arial, Helvetica, sans-serif" font-size="46" font-weight="700" fill="#f8fafc">Jai Surya Kode</text>
<text x="98" y="176" font-family="Arial, Helvetica, sans-serif" font-size="20" font-weight="400" fill="#94a3b8">AI Engineer · GenAI &amp; RAG Systems</text>

<text x="98" y="212" font-family="Consolas, Monaco, monospace" font-size="14" fill="#64748b">RAG</text>
<circle cx="140" cy="208" r="2" fill="#64748b"/>
<text x="152" y="212" font-family="Consolas, Monaco, monospace" font-size="14" fill="#64748b">LLM Evaluation</text>
<circle cx="256" cy="208" r="2" fill="#64748b"/>
<text x="268" y="212" font-family="Consolas, Monaco, monospace" font-size="14" fill="#64748b">AWS Bedrock</text>
<circle cx="376" cy="208" r="2" fill="#64748b"/>
<text x="388" y="212" font-family="Consolas, Monaco, monospace" font-size="14" fill="#64748b">PyTorch</text>
<circle cx="472" cy="208" r="2" fill="#64748b"/>
<text x="484" y="212" font-family="Consolas, Monaco, monospace" font-size="14" fill="#64748b">Vector Search</text>

<line x1="98" y1="230" x2="640" y2="230" stroke="#1e293b" stroke-width="1"/>
</svg>
